<svg width="220" height="109" viewBox="0 0 220 109" fill="none" xmlns="http://www.w3.org/2000/svg">
<g clip-path="url(#clip0_89_2916)">
<path d="M124.777 98.9557C124.549 98.6871 124.285 98.5052 123.983 98.4117C123.682 98.3182 123.377 98.2502 123.066 98.2094H122.848C120.567 97.7946 118.246 97.3595 115.882 96.9056C111.859 96.1389 107.754 95.4555 103.568 94.8555C102.753 94.7433 101.935 94.6345 101.118 94.5274C103.631 90.0821 106.157 85.6572 108.699 81.2544C110.253 78.5634 111.85 75.903 113.488 73.2749C114.545 71.5784 115.572 69.87 116.566 68.1514C116.67 68.0477 116.741 67.9338 116.784 67.8097C117.012 67.4782 117.182 67.1416 117.298 66.7999C117.412 66.4583 117.354 66.1115 117.126 65.7596C116.939 65.4281 116.665 65.2428 116.302 65.2003C115.94 65.1595 115.572 65.1374 115.199 65.1374H115.012C114.908 65.1374 114.789 65.1272 114.654 65.1068C114.52 65.0864 114.411 65.0235 114.327 64.9198C113.498 64.2993 112.674 64.0087 111.855 64.0512C111.037 64.0937 110.213 64.2484 109.384 64.5169C109.341 64.5169 109.3 64.5373 109.259 64.5798C105.735 65.5947 102.904 67.5292 100.769 70.3868C99.7121 71.6702 98.9868 73.1084 98.5919 74.7029C98.4046 75.427 98.3127 76.1835 98.3127 76.9689C98.5408 78.6875 99.5469 79.6803 101.329 79.9505C102.552 80.095 103.517 80.0899 104.222 79.9352C104.927 79.7805 105.413 79.6089 105.682 79.4236C105.827 79.3199 105.911 79.2944 105.931 79.3454C105.951 79.3981 105.868 79.5375 105.682 79.7653C105.516 80.0338 105.226 80.5319 104.813 81.2561C102.349 85.5331 99.8942 89.8033 97.4496 94.0684C87.5347 92.8717 77.4989 92.0625 67.3406 91.6426C55.0883 91.1343 43.2616 91.5236 31.8588 92.8071C31.5473 92.8479 31.2255 92.8904 30.8953 92.9312C29.4448 93.2201 28.4693 93.2371 27.9722 92.9771C27.4751 92.7187 27.8581 91.7922 29.123 90.1977C35.1973 82.4137 41.0944 73.7203 46.8163 64.1141C52.5381 54.5095 57.8292 44.6499 62.6913 34.5388C67.5517 24.4276 71.7567 14.7024 75.3011 5.36641C75.7574 4.14586 76.0791 2.89302 76.2647 1.60958C76.3481 1.0707 76.1864 0.652523 75.7829 0.351636C75.3777 0.0524496 74.8959 -0.0563455 74.3375 0.0252508C73.757 0.169744 73.3161 0.434932 73.0165 0.817415C72.7151 1.1999 72.504 1.65038 72.3798 2.16885C68.6685 12.0012 64.2371 22.2891 59.0856 33.0344C53.9341 43.7779 48.3059 54.2273 42.1993 64.3809C36.0944 74.5346 29.7342 83.6275 23.122 91.6596C21.7533 93.3782 19.9708 94.4441 17.773 94.8572C16.1353 95.1683 14.1298 95.6544 11.7567 96.3157C9.38181 96.9787 7.14823 97.832 5.05596 98.8775C2.96199 99.9229 1.45875 101.181 0.546259 102.65C-0.0138364 103.685 -0.14322 104.657 0.158108 105.568C0.457733 106.48 1.12678 107.163 2.16356 107.618C3.26161 108.074 4.40223 108.259 5.58371 108.178C8.50676 107.991 11.1813 107.08 13.6072 105.446C16.6954 103.314 19.5265 100.851 22.0972 98.0564C23.2378 96.8767 24.6048 96.1729 26.2017 95.9451C26.6988 95.9026 27.2163 95.8618 27.756 95.821C28.3569 95.7173 28.9783 95.6442 29.6218 95.6034C43.9256 94.1534 59.5418 93.8491 76.469 94.6872C83.3025 95.0255 89.8857 95.5337 96.2272 96.2035C94.6797 98.903 93.1356 101.602 91.5966 104.297C91.3277 104.836 91.3072 105.295 91.5337 105.679C91.7618 106.061 92.218 106.284 92.9024 106.347C93.5459 106.388 94.1571 106.357 94.7376 106.253C99.5265 105.57 104.295 104.866 109.041 104.142C109.414 104.059 109.736 103.904 110.005 103.676C110.046 103.634 110.068 103.568 110.068 103.474C110.068 103.381 110.058 103.287 110.037 103.195C110.017 103.102 109.984 103.034 109.944 102.993H109.789C109.395 102.765 108.97 102.651 108.514 102.651C106.544 102.838 104.605 102.993 102.698 103.117C101.598 103.262 100.5 103.375 99.4022 103.459H98.8421C98.3859 103.562 97.9552 103.613 97.5517 103.613C97.1482 103.613 96.852 103.5 96.6647 103.272C96.4775 103.044 96.5507 102.651 96.8827 102.092C97.7952 100.457 98.7076 98.8214 99.6184 97.1861C99.7257 96.9957 99.8329 96.807 99.9402 96.6183C107.936 97.56 115.533 98.7738 122.724 100.261C123.304 100.345 123.874 100.345 124.435 100.261C124.518 100.261 124.615 100.203 124.731 100.091C124.845 99.9773 124.921 99.8481 124.964 99.7037C125.027 99.5796 125.03 99.4453 124.979 99.2991C124.927 99.1546 124.86 99.0407 124.777 98.9574V98.9557ZM103.91 77.1576C103.641 77.3446 103.355 77.4839 103.056 77.5774C102.754 77.6709 102.47 77.603 102.201 77.3752C101.932 77.1066 101.798 76.821 101.798 76.5218C101.798 76.2226 101.818 75.9166 101.861 75.6055C102.358 73.1832 103.633 71.1092 105.686 69.3804C107.739 67.6516 109.956 66.5398 112.341 66.0418C112.879 65.9381 113.205 65.9789 113.319 66.1659C113.434 66.3529 113.423 66.6061 113.289 66.9274C113.154 67.2487 112.994 67.5428 112.807 67.8131C112.765 67.8964 112.744 67.9576 112.744 68.0001C110.546 71.7892 107.603 74.8423 103.912 77.1593L103.91 77.1576ZM7.29464 105.227C6.21701 105.64 5.41347 105.703 4.88402 105.414C4.35457 105.123 4.169 104.657 4.32392 104.016C4.47884 103.374 5.0134 102.713 5.9259 102.029C8.84895 99.979 12.1857 98.8197 15.9395 98.5511C13.6583 101.594 10.7778 103.819 7.29464 105.227Z" fill="white"/>
<path d="M72.3646 75.4338C71.338 75.7755 70.5771 75.7755 70.0783 75.4338C69.5812 75.0921 69.6016 73.9379 70.1412 71.9711C70.2859 71.5155 70.4204 71.0599 70.5447 70.6043C70.7728 69.3838 70.2025 68.7718 68.8338 68.7718C67.8804 68.8551 67.082 69.2376 66.4402 69.921C64.988 71.2452 63.5069 72.5406 61.9935 73.8019L61.9305 73.8954C61.6189 74.1232 61.2359 74.4071 60.7796 74.7488C60.3234 75.0904 59.8672 75.3488 59.4109 75.5256C58.9547 75.7024 58.541 75.7279 58.1664 75.6038C58.0422 75.5001 57.9894 75.3607 58.0115 75.1839C58.0319 75.0088 58.0847 74.8474 58.1664 74.7029C59.7207 71.371 62.0956 68.7718 65.2877 66.9087C65.972 66.4956 66.6189 66.2202 67.2318 66.086C67.843 65.9517 68.449 66.2984 69.0517 67.1263C69.0926 67.1688 69.1504 67.1994 69.2219 67.2198C69.2951 67.2402 69.3513 67.2504 69.3922 67.2504C69.9931 67.4782 70.5226 67.3847 70.9788 66.9716C71.3312 66.6197 71.4453 66.2168 71.321 65.7613C71.0299 64.25 70.1804 63.4528 68.7708 63.3712C67.3612 63.2267 66.0129 63.4749 64.7276 64.1157C62.322 65.2139 60.1361 66.6724 58.1664 68.4947C56.4879 70.1301 55.1923 71.9932 54.2798 74.0841C53.6789 75.4083 53.6329 76.4589 54.1402 77.2357C54.6492 78.0126 55.6077 78.441 57.0173 78.5243C58.924 78.628 60.6962 78.1928 62.3357 77.2204C63.02 76.8278 64.3666 75.7619 66.3789 74.0229C66.4827 77.8936 69.0108 78.9391 73.9666 77.1593C74.5675 76.8907 75.1378 76.5694 75.6775 76.1971C75.6775 76.1563 75.7081 76.1342 75.7711 76.1342C76.5798 75.5953 77.3254 74.985 78.0098 74.3017C78.6942 73.6183 79.336 72.8839 79.9387 72.0969C80.3523 71.0208 80.3166 70.3426 79.8297 70.0638C79.3428 69.785 78.747 70.0434 78.0422 70.8406C77.3374 71.6379 76.4725 72.5168 75.446 73.4806C74.4194 74.4428 73.3929 75.0955 72.368 75.4372L72.3646 75.4338Z" fill="white"/>
<path d="M149.733 62.9517C150.095 62.9007 150.438 62.8174 150.759 62.7035C151.081 62.5896 151.292 62.491 151.396 62.4077C152.578 61.2279 153.396 59.8204 153.853 58.1851C153.977 57.7295 153.894 57.3725 153.604 57.1141C153.313 56.8557 152.95 56.7418 152.516 56.7724C152.08 56.803 151.677 56.9951 151.304 57.347C150.724 58.1341 150.252 58.8531 149.889 59.5042C149.527 60.157 149.18 60.9169 148.848 61.7872C148.66 62.2836 148.67 62.6151 148.878 62.7817C149.086 62.9483 149.37 63.0044 149.733 62.9517Z" fill="white"/>
<path d="M219.607 70.0624C219.12 69.7837 218.524 70.042 217.819 70.8393C217.114 71.6366 216.25 72.5154 215.223 73.4793C214.196 74.4415 213.17 75.0942 212.145 75.4359C211.119 75.7776 210.358 75.7776 209.86 75.4359C209.363 75.0942 209.384 73.94 209.923 71.9732C210.068 71.5176 210.203 71.062 210.327 70.6064C210.555 69.3859 209.985 68.7739 208.616 68.7739C207.663 68.8572 206.864 69.2397 206.221 69.9231C204.77 71.2473 203.287 72.5426 201.774 73.804L201.711 73.8975C201.399 74.1253 201.016 74.4092 200.56 74.7508C200.104 75.0925 199.648 75.3509 199.191 75.5277C198.735 75.7045 198.321 75.73 197.947 75.6059C197.823 75.5022 197.77 75.3628 197.792 75.186C197.812 75.0109 197.865 74.8494 197.947 74.7049C199.501 71.3731 201.876 68.7739 205.068 66.9108C205.753 66.4977 206.399 66.2223 207.012 66.088C207.623 65.9537 208.23 66.3005 208.832 67.1284C208.873 67.1709 208.931 67.2015 209.002 67.2219C209.074 67.2423 209.132 67.2525 209.173 67.2525C209.774 67.4803 210.303 67.3868 210.759 66.9737C211.112 66.6218 211.226 66.2189 211.102 65.7633C210.81 64.2521 209.961 63.4548 208.551 63.3732C207.142 63.2288 205.793 63.4769 204.508 64.1178C202.103 65.216 199.917 66.6745 197.947 68.4968C196.951 69.4675 196.093 70.5197 195.366 71.6502C192.324 74.5281 189.389 76.3029 186.565 76.9743C183.02 77.7818 181.682 76.4576 182.554 72.9999C182.947 71.096 183.487 69.2329 184.171 67.4106C185.269 64.6159 186.41 61.8314 187.591 59.0571C188.047 57.9607 188.504 56.8727 188.96 55.7967C189.416 54.6577 189.903 53.4882 190.421 52.288C190.773 51.3769 191.136 50.4674 191.508 49.5563C191.861 48.6043 192.566 48.1283 193.623 48.1283C195.902 48.0875 198.204 47.994 200.526 47.8496H201.21C201.583 47.9124 201.951 47.9175 202.314 47.8649C202.676 47.8139 203.013 47.6116 203.325 47.2597C203.781 46.6596 202.869 46.3383 200.589 46.2975H198.412C197.002 46.2975 195.56 46.2771 194.089 46.2346C193.82 46.2346 193.618 46.1309 193.483 45.9235C193.349 45.7161 193.354 45.4782 193.499 45.2096C194.038 43.7391 194.607 42.301 195.209 40.8935C195.521 40.1285 195.81 39.372 196.079 38.6275C196.183 38.3997 196.277 38.2042 196.359 38.0376C196.772 37.2505 196.98 36.4533 196.98 35.6475C196.98 35.503 196.944 35.3364 196.871 35.1511C196.798 34.9641 196.701 34.8298 196.575 34.7482C196.159 34.4372 195.672 34.4168 195.114 34.6853C194.534 35.0372 194.108 35.5336 193.839 36.1762C193.507 36.8187 193.185 37.48 192.875 38.1634C192.191 39.6746 191.507 41.1553 190.822 42.6036C190.553 43.1 190.325 43.5555 190.138 43.9703C189.806 44.737 189.517 45.3048 189.266 45.6787C189.018 46.051 188.691 46.2686 188.287 46.3315C187.884 46.3944 187.266 46.425 186.437 46.425H185.131C183.866 46.4675 182.591 46.5185 181.306 46.5797C180.809 46.663 180.33 46.7973 179.876 46.9826C179.731 47.0251 179.612 47.1016 179.518 47.2155C179.425 47.3294 179.358 47.428 179.316 47.5113C179.316 47.6558 179.351 47.7867 179.425 47.8988C179.496 48.0127 179.595 48.0909 179.719 48.1317C180.175 48.4003 180.667 48.5363 181.197 48.5363C181.726 48.5363 182.259 48.5159 182.799 48.4734C183.131 48.4326 183.453 48.3918 183.762 48.3493H186.437C187.494 48.3918 187.857 48.8678 187.525 49.7773C187.297 50.3161 187.068 50.8431 186.84 51.3616C186.716 51.6727 186.582 51.9821 186.435 52.2931C185.834 53.7211 185.264 55.1405 184.724 56.5464C183.087 60.4596 181.469 64.3915 179.872 68.3455C179.517 69.2839 179.205 70.2358 178.933 71.198C178.556 71.419 178.136 71.6774 177.666 71.9783L175.334 73.345C172.244 74.9803 170.514 75.5498 170.141 75.0534C169.769 74.557 169.862 73.8329 170.421 72.8792C170.877 71.8661 171.311 70.841 171.726 69.8058C172.12 68.6668 172.058 67.7777 171.539 67.1352C171.02 66.4943 170.14 66.2138 168.895 66.2971C168.127 66.4008 167.392 66.598 166.687 66.887C165.982 67.1777 165.308 67.5075 164.666 67.8814C163.941 68.2962 163.184 68.7297 162.397 69.1853C162.086 69.3723 161.776 69.5474 161.464 69.714C161.236 69.7769 161.107 69.7242 161.076 69.5593C161.045 69.3944 161.076 69.187 161.17 68.9388C161.263 68.6906 161.36 68.4322 161.466 68.1619C161.694 67.7064 161.828 67.3137 161.871 66.9822C161.871 66.6303 161.721 66.3141 161.42 66.0353C161.119 65.7565 160.792 65.6477 160.441 65.7089C159.612 65.8755 158.989 66.2988 158.575 66.9822C157.923 68.1313 157.276 69.2873 156.629 70.4466C156.326 70.7033 155.993 71.0008 155.621 71.3442C153.527 73.2804 151.372 74.6097 149.154 75.3339C146.936 76.0581 145.827 76.0071 145.827 75.1792C146.117 73.7309 146.626 72.3437 147.351 71.0178C147.475 70.79 147.724 70.3038 148.097 69.5593C148.47 68.8147 148.812 68.0684 149.123 67.3239C149.207 66.9312 149.077 66.6048 148.735 66.3464C148.393 66.088 147.993 66.0098 147.538 66.1135C146.917 66.3005 146.439 66.6218 146.108 67.0757C145.397 68.1211 144.762 69.1921 144.2 70.2919C139.156 73.9638 136.091 75.8014 135.007 75.8014C134.551 75.8014 134.322 75.4597 134.322 74.7763C134.322 74.3208 134.82 72.614 135.816 69.6528C136.541 67.4786 136.903 66.2274 136.903 65.8959C136.903 65.0273 136.313 64.5921 135.131 64.5921C134.322 64.5921 133.504 65.1004 132.675 66.1135C126.248 73.6272 122.278 77.3857 120.764 77.3857C120.349 77.3857 120.143 77.1579 120.143 76.7023C120.143 76.2893 120.308 75.6467 120.64 74.7763C122.734 69.4573 123.822 66.7238 123.905 66.5793C124.134 66.0404 124.248 65.5848 124.248 65.2126C124.248 64.1773 123.594 63.6605 122.288 63.6605C121.956 63.6605 121.728 63.7948 121.604 64.0651C118.349 70.399 116.721 74.8188 116.721 77.3245C116.721 79.3746 117.707 80.398 119.675 80.398C121.457 80.398 123.1 79.7826 124.603 78.5502C126.107 77.3194 127.998 75.6994 130.278 73.6901C130.278 76.5681 131.345 78.234 133.48 78.6896H133.916C135.366 78.6896 137.026 78.0895 138.892 76.8893C139.992 76.1907 141.216 75.3186 142.566 74.2766C142.077 76.2927 142.324 77.6084 143.308 78.2255C144.365 78.8885 145.848 79.0279 147.755 78.6454C149.661 78.2629 151.372 77.5234 152.886 76.4253C153.153 76.2315 153.413 76.0326 153.669 75.8303C153.459 76.2145 153.25 76.5987 153.042 76.9828C152.814 77.3755 152.852 77.7444 153.151 78.0844C153.453 78.4261 153.871 78.5961 154.411 78.5961C155.468 78.5145 156.34 78.0572 157.023 77.2293C159.573 74.7253 162.329 72.5001 165.295 70.5537C166.435 69.8296 167.186 69.4879 167.549 69.5287C167.911 69.5712 167.772 70.2953 167.128 71.7029C166.485 73.0696 166.164 74.4465 166.164 75.832C166.164 77.2174 166.806 77.996 168.093 78.1609C169.379 78.3275 170.591 78.1609 171.731 77.6645C173.453 76.9199 174.966 76.1737 176.272 75.4291C176.965 75.033 177.635 74.5876 178.287 74.093C177.949 77.3075 179.219 79.1655 182.101 79.667C185.138 80.1957 187.988 79.6823 190.652 78.1303C191.617 77.5676 192.591 76.891 193.572 76.1023C193.587 76.5324 193.701 76.9148 193.917 77.2463C194.426 78.0232 195.385 78.4516 196.794 78.5349C198.701 78.6386 200.473 78.2034 202.111 77.231C202.795 76.8383 204.142 75.7725 206.154 74.0335C206.258 77.9042 208.786 78.9496 213.742 77.1698C214.343 76.9012 214.913 76.58 215.453 76.2077C215.453 76.1669 215.484 76.1448 215.547 76.1448C216.355 75.6059 217.101 74.9956 217.785 74.3123C218.47 73.6289 219.111 72.8945 219.714 72.1075C220.128 71.0314 220.092 70.3531 219.605 70.0743L219.607 70.0624Z" fill="white"/>
</g>
<defs>
<clipPath id="clip0_89_2916">
<rect width="220" height="108.197" fill="white" transform="translate(0 0.000244141)"/>
</clipPath>
</defs>
</svg>
