<svg width="49" height="64" viewBox="0 0 49 64" fill="none" xmlns="http://www.w3.org/2000/svg">
<mask id="mask0_89_2406" style="mask-type:alpha" maskUnits="userSpaceOnUse" x="1" y="4" width="43" height="58">
<path d="M8.26958 5.62374C6.17777 6.33199 4.00557 7.79845 3.25248 9.00742C2.81899 9.69315 2.28443 10.9745 1.97853 12.0257C1.5848 13.4327 1.51411 13.8409 1.50538 14.8714C1.49688 15.4983 1.52119 15.6365 1.77992 16.4775C2.21535 17.8732 2.71253 18.7199 3.59134 19.531C4.36678 20.2495 4.92122 20.4766 6.21184 20.6137C6.8007 20.6764 7.09787 20.6558 7.97453 20.5095C9.11224 20.3173 8.92071 20.3985 10.9224 19.3578C11.3511 19.14 12.1294 18.8843 12.3308 18.9043C12.595 18.9212 12.8369 19.1715 12.9013 19.4927C12.9657 19.8138 12.8043 19.9767 12.336 20.0591C12.1287 20.0956 11.7108 20.2403 11.3969 20.3905C11.0893 20.5317 10.5698 20.7734 10.2545 20.9159C9.93013 21.0521 9.55517 21.2606 9.42279 21.363C9.28273 21.4668 8.93081 21.6712 8.63221 21.8187C8.33361 21.9662 7.83757 22.2513 7.53442 22.4629C7.22224 22.6682 6.94802 22.8193 6.91326 22.8017C6.65911 22.6168 7.46899 21.5958 8.37575 20.9455C8.64954 20.747 8.87592 20.5489 8.86917 20.5105C8.84621 20.38 7.79391 21.2378 7.34606 21.752C6.60899 22.6019 6.53814 23.2793 7.25017 22.782C7.75708 22.4237 8.65018 21.9659 8.75177 22.0034C8.81092 22.0247 8.81725 22.0157 8.77709 21.9673C8.73692 21.919 8.7532 21.8765 8.82231 21.8644C8.88373 21.8536 8.96094 21.8875 8.9844 21.9309C9.01823 21.9882 9.03857 21.9688 9.02371 21.8844C9.01249 21.7755 9.14849 21.6487 9.16875 21.7639C9.1809 21.833 8.80563 22.5797 8.75188 22.5892C8.72117 22.5946 8.66777 22.786 8.63647 23.0132C8.58797 23.3225 8.6149 23.6106 8.73515 24.1594C8.93558 25.074 9.10434 25.3135 9.91783 25.8432C10.409 26.1606 10.5711 26.227 10.871 26.2218C11.5488 26.2055 12.3515 25.9535 12.9876 25.5646C13.3445 25.3435 13.6074 25.2181 13.6616 25.2561C13.7789 25.3384 13.8667 25.8374 13.8637 26.3604C13.8581 26.5988 13.8587 27.0974 13.8518 27.4628C13.8524 27.9613 13.8107 28.1745 13.6954 28.3293C13.5739 28.4932 13.5521 28.6395 13.588 29.0685C13.6086 29.3657 13.6426 29.8742 13.6519 30.1971C13.6689 30.5187 13.7064 31.1374 13.7423 31.5665C13.7705 31.9969 13.8081 32.6156 13.8174 32.9385C13.8343 33.2601 13.8805 33.8377 13.9146 34.2116C13.9973 34.9966 14.0325 34.9271 13.0954 35.7647C12.0819 36.6633 11.437 37.497 11.011 38.4505C10.7949 38.9318 10.6135 39.4308 10.6044 39.559C10.5953 39.6873 10.5532 39.853 10.5179 39.9225C10.4447 40.0462 10.4989 40.6699 10.6588 41.4888C10.7452 41.9802 11.0713 42.754 11.3528 43.1398C11.4593 43.2952 11.5703 43.5211 11.5905 43.6363C11.6297 43.8589 11.9937 44.5786 12.2599 44.9671C12.3353 45.0805 12.4485 45.2743 12.5022 45.3994C12.5847 45.5986 12.9061 45.9854 13.0528 46.0546C13.0799 46.0736 13.1859 46.1816 13.2793 46.3076C13.3728 46.4337 13.5754 46.5959 13.7235 46.6728C14.0454 46.8378 15.2609 47.1781 16.4553 47.443C16.8843 47.5417 17.3724 47.6617 17.5331 47.7205C17.6925 47.7716 18.0596 47.8337 18.3482 47.8542C19.4717 47.9416 21.2323 48.3206 21.7371 48.5801C21.8414 48.633 22.0083 48.9519 22.2613 49.5803C22.7307 50.7642 23.0281 51.9151 23.0804 52.7529C23.1297 53.5279 23.0605 53.6746 22.1056 54.6816C21.2181 55.6213 20.5139 56.7029 20.5783 57.0241C20.5945 57.1162 20.8168 57.6154 21.0676 58.1412C21.3171 58.6593 21.6973 59.4711 21.9052 59.9332C22.4113 61.0553 22.4758 61.1073 23.2575 61.0964C25.0184 61.0717 25.7956 60.9904 28.5367 60.5084C31.6541 59.9602 31.9021 59.8849 32.2216 59.3617C32.4124 59.0511 32.4323 58.9842 32.6132 57.8522C32.6762 57.4453 32.7677 56.9305 32.8157 56.7083C32.9457 56.0522 32.948 55.1653 32.8164 54.7768C32.719 54.4931 32.6193 54.3761 32.1949 54.0787C31.8609 53.8446 31.5855 53.7189 31.4098 53.7102C31.2585 53.7051 31.0531 53.6621 30.9592 53.6232C30.8639 53.5766 30.7176 53.5549 30.6331 53.5697C30.2108 53.644 28.9149 52.6213 28.5535 51.917C28.1701 51.177 27.8966 49.262 28.0134 48.1254C28.1069 47.262 28.642 46.6138 30.1388 45.5827C30.8585 45.0841 31.2236 44.7745 32.1232 43.9039C32.2516 43.7785 32.3564 43.6096 32.366 43.5288C32.3778 43.4159 32.4875 43.3649 32.9184 43.2496C33.2215 43.1725 33.5653 43.0566 33.68 42.989C33.8038 42.9276 34.068 42.8099 34.2673 42.7274C34.4741 42.6435 34.8884 42.3886 35.1979 42.1679C35.6831 41.8214 35.8733 41.7325 36.5816 41.5288C37.1096 41.3805 37.4429 41.2507 37.5139 41.159C37.5722 41.0855 37.6549 41.0155 37.6933 41.0088C37.77 40.9953 38.67 40.4412 39.0789 40.1556C39.6075 39.7856 40.6566 38.8649 41.1225 38.3634C41.7611 37.6733 42.4915 36.5158 43.0043 35.3808C43.433 34.4426 43.6762 31.8193 43.5433 29.7134C43.4967 29.0883 42.7075 26.4013 42.3263 25.6292C41.6786 24.2867 41.6434 24.2216 41.018 23.3659C40.1227 22.146 39.3035 21.4036 38.3599 20.9442C38.2633 20.8899 37.9798 20.7181 37.7464 20.5613C37.5039 20.3981 37.1459 20.2078 36.9581 20.13C36.764 20.0612 36.3368 19.8831 36.0036 19.7438C35.6781 19.6031 35.3349 19.4972 35.2428 19.5134C35.1507 19.5297 35.0531 19.5151 35.0324 19.4871C34.9868 19.4081 33.5952 19.0117 33.457 19.036C33.3955 19.0468 33.3057 19.0309 33.2619 19.0069C33.2091 18.9767 32.9282 18.9548 32.6179 18.946C32.3167 18.9436 31.955 18.9122 31.829 18.8711C31.6877 18.8326 31.5057 18.8329 31.3806 18.8866C31.2694 18.9299 31.1452 18.9438 31.1141 18.9018C30.9471 18.7175 28.9062 18.9497 27.716 19.2936C27.188 19.4419 26.7241 19.5947 26.6834 19.6335C26.6427 19.6723 26.5099 19.7274 26.3821 19.7657C26.2556 19.8117 26.1165 19.8757 26.0695 19.9235C26.0302 19.97 25.8477 20.0575 25.6611 20.122C25.3774 20.2194 24.8267 20.5537 24.0153 21.1159C23.9159 21.1809 23.6286 21.4373 23.3692 21.6729L22.9002 22.1115L22.7309 21.9592C22.3576 21.637 22.3555 21.3999 22.6929 20.5728C23.0981 19.5912 23.2162 19.1826 23.3151 18.4845C23.3622 18.1675 23.4469 17.7489 23.5053 17.5407C23.8773 16.28 23.8127 14.6529 23.3149 12.5874C23.0725 11.5693 22.8453 10.9523 22.5606 10.5036C22.4956 10.4042 22.3549 10.144 22.2453 9.92584C22.0508 9.54051 20.7629 7.97809 20.483 7.78192C20.4017 7.72497 20.2736 7.58129 20.1969 7.46021C20.0096 7.16069 18.4477 6.06597 17.7063 5.72141C16.9379 5.35787 16.4701 5.2185 15.8673 5.16621C15.6031 5.14934 15.1118 5.10118 14.7821 5.07208C12.4705 4.84538 9.92054 5.06427 8.26958 5.62374ZM14.6667 17.8286C14.9124 17.7854 15.4906 18.2378 15.6205 18.5712C15.7688 18.9646 15.5978 19.4775 15.2237 19.7808C15.0787 19.9013 14.958 20.0254 14.9621 20.0484C14.9675 20.0792 15.0528 20.1591 15.1535 20.2364C15.2812 20.3327 15.4066 20.5956 15.6 21.1553C16.0161 22.3961 16.0971 23.7117 15.7825 24.2182C15.5298 24.6267 15.328 24.5593 14.8632 23.897L14.4918 23.3607L14.3949 22.2696C14.3003 21.1464 14.3336 20.5706 14.5131 20.2857C14.6116 20.1259 14.6012 20.1119 14.4455 20.0364C14.3579 19.9885 14.2423 19.9613 14.1962 19.9694C14.0043 20.0032 13.5177 19.4872 13.4651 19.1877C13.4164 18.9113 13.6106 18.2597 13.7773 18.1275C14.0014 17.9615 14.2783 17.8257 14.4002 17.8438C14.4644 17.8484 14.5822 17.8435 14.6667 17.8286Z" fill="white"/>
</mask>
<g mask="url(#mask0_89_2406)">
<rect x="-78.9146" y="1.40845" width="164.564" height="109.803" transform="rotate(-18.466 -78.9146 1.40845)" fill="#BC2321"/>
<path d="M14.0532 18.6566C13.8651 18.9825 13.8835 19.1772 14.1408 19.4248C14.5908 19.8681 15.3371 19.4756 15.2263 18.846C15.1197 18.2395 14.361 18.1117 14.0532 18.6566Z" fill="white"/>
</g>
</svg>
