<svg width="320" height="599" viewBox="0 0 320 599" fill="none" xmlns="http://www.w3.org/2000/svg">
<path fill-rule="evenodd" clip-rule="evenodd" d="M0.0711675 569.91H0.0710524L0.0710144 18.9369H0L6.90582 2.30511e-05L13.7462 18.7573H13.776L20.8607 2.15059e-05L27.9453 18.7573H27.9751L34.8154 1.99608e-05L41.6505 18.7427L48.4855 1.84472e-05L55.3258 18.7573H55.3557L62.4403 1.6902e-05L69.525 18.7573H69.5547L76.3951 1.53569e-05L83.2301 18.7427L90.0652 1.38433e-05L96.9055 18.7573H96.9353L104.02 1.22981e-05L111.105 18.7573H111.134L117.975 1.0753e-05L124.81 18.742L131.644 9.2394e-06L138.485 18.7573H139.044L145.884 7.66267e-06L152.719 18.7427L159.554 6.14906e-06L166.389 18.742L173.224 4.6355e-06L180.064 18.7573H180.624L187.464 3.05877e-06L194.299 18.742L201.134 1.5452e-06L207.974 18.7573H208.004L215.089 0L222.174 18.7573H222.203L229.043 5.94901e-05L235.878 18.7427L242.713 5.79765e-05L249.554 18.7573H249.584L256.669 5.64312e-05L263.753 18.7573H263.783L270.623 5.48862e-05L277.458 18.7421L284.292 5.33726e-05L291.133 18.7573H291.164L298.248 5.18273e-05L305.333 18.7573H305.362L312.202 5.02823e-05L319.108 18.9369H319.038L319.038 28.8553L319.038 579.827H319.108L312.203 598.764L305.363 580.008H305.332L298.248 598.764L291.164 580.008H291.133L284.293 598.764L277.458 580.022L270.623 598.764L263.783 580.008H263.753L256.668 598.764L249.584 580.008H249.553L242.713 598.764L235.878 580.022L229.044 598.764L222.204 580.008H222.173L215.089 598.764L208.005 580.008H207.974L201.134 598.764L194.299 580.022L187.465 598.764L180.625 580.008H180.064L173.224 598.764L166.39 580.022L159.555 598.764L152.72 580.021L145.884 598.764L139.044 580.008H138.485L131.645 598.764L124.81 580.022L117.975 598.764L111.135 580.008H111.104L104.02 598.764L96.9357 580.008H96.9056L90.0656 598.764L83.2306 580.021L76.3956 598.764L69.5556 580.008H69.5245L62.4403 598.764L55.356 580.008H55.326L48.486 598.764L41.651 580.021L34.8159 598.764L27.976 580.008H27.9449L20.8606 598.764L13.7763 580.008H13.7463L6.90632 598.764L0.000494892 579.827H0.0711675L0.0711675 569.91Z" fill="#F8F4E9"/>
</svg>
